<?xml version="1.0" encoding="UTF-8"?>
<svg id="Layer_1" data-name="Layer 1" xmlns="http://www.w3.org/2000/svg" xmlns:xlink="http://www.w3.org/1999/xlink" viewBox="0 0 153.84 54.71">
  <defs>
    <style>
      .cls-1 {
        fill: url(#linear-gradient);
      }

      .cls-1, .cls-2, .cls-3, .cls-4 {
        stroke-width: 0px;
      }

      .cls-2 {
        fill: url(#linear-gradient-4);
      }

      .cls-3 {
        fill: url(#linear-gradient-2);
      }

      .cls-4 {
        fill: url(#linear-gradient-3);
      }
    </style>
    <linearGradient id="linear-gradient" x1="-8.9" y1="26.79" x2="167.74" y2="26.79" gradientUnits="userSpaceOnUse">
      <stop offset="0" stop-color="#4a2fbd"/>
      <stop offset=".09" stop-color="#4a2fbd" stop-opacity=".95"/>
      <stop offset=".23" stop-color="#4a2fbd" stop-opacity=".82"/>
      <stop offset=".41" stop-color="#4a2fbd" stop-opacity=".62"/>
      <stop offset=".5" stop-color="#4a2fbd" stop-opacity=".5"/>
      <stop offset=".58" stop-color="#4a2fbd" stop-opacity=".65"/>
      <stop offset=".69" stop-color="#4a2fbd" stop-opacity=".8"/>
      <stop offset=".8" stop-color="#4a2fbd" stop-opacity=".91"/>
      <stop offset=".9" stop-color="#4a2fbd" stop-opacity=".98"/>
      <stop offset="1" stop-color="#4a2fbd"/>
    </linearGradient>
    <linearGradient id="linear-gradient-2" x1="-8.9" y1="26.78" x2="167.74" y2="26.78" gradientUnits="userSpaceOnUse">
      <stop offset="0" stop-color="#4a2fbd"/>
      <stop offset=".09" stop-color="#4a2fbd" stop-opacity=".95"/>
      <stop offset=".23" stop-color="#4a2fbd" stop-opacity=".82"/>
      <stop offset=".41" stop-color="#4a2fbd" stop-opacity=".62"/>
      <stop offset=".5" stop-color="#4a2fbd" stop-opacity=".5"/>
      <stop offset=".58" stop-color="#4a2fbd" stop-opacity=".65"/>
      <stop offset=".69" stop-color="#4a2fbd" stop-opacity=".8"/>
      <stop offset=".8" stop-color="#4a2fbd" stop-opacity=".91"/>
      <stop offset=".9" stop-color="#4a2fbd" stop-opacity=".98"/>
      <stop offset="1" stop-color="#4a2fbd"/>
    </linearGradient>
    <linearGradient id="linear-gradient-3" x1="95.19" y1="-.29" x2="95.19" y2="51.51" gradientUnits="userSpaceOnUse">
      <stop offset="0" stop-color="#aa3679"/>
      <stop offset=".17" stop-color="#a4357d"/>
      <stop offset=".4" stop-color="#933488"/>
      <stop offset=".66" stop-color="#78329b"/>
      <stop offset=".94" stop-color="#532fb6"/>
      <stop offset="1" stop-color="#4a2fbd"/>
    </linearGradient>
    <linearGradient id="linear-gradient-4" x1="76.93" y1="-.29" x2="76.93" y2="51.51" xlink:href="#linear-gradient-3"/>
  </defs>
  <g>
    <polygon class="cls-1" points="0 35.28 46.95 53.57 51.04 43.02 44.42 40.62 34.73 37.05 13.41 29.29 34.73 21.37 44.42 17.64 57.47 12.62 57.47 0 0 23.01 0 35.28"/>
    <polygon class="cls-3" points="96.36 0 96.36 12.62 109.42 17.64 119.1 21.37 140.43 29.29 119.1 37.05 109.42 40.62 102.72 43.05 106.91 53.56 153.84 35.28 153.84 23.01 96.36 0"/>
  </g>
  <g>
    <polygon class="cls-4" points="86.1 38.49 87.55 42.28 92.31 54.71 104.29 54.71 95.01 31.47 86.1 38.49"/>
    <polygon class="cls-2" points="64.64 45.37 65.76 42.28 66.1 41.36 69.14 33.07 76.5 12.76 83.17 30.77 92.44 25.02 82.45 0 70.81 0 51.17 50.61 49.58 54.71 61.25 54.71 61.26 54.71 104.29 20.79 64.64 45.37"/>
  </g>
</svg>